<?xml version="1.0" standalone="no"?>
<!DOCTYPE svg PUBLIC "-//W3C//DTD SVG 20010904//EN"
 "http://www.w3.org/TR/2001/REC-SVG-20010904/DTD/svg10.dtd">
<svg version="1.0" xmlns="http://www.w3.org/2000/svg"
 width="260.000000pt" height="260.000000pt" viewBox="0 0 260.000000 260.000000"
 preserveAspectRatio="xMidYMid meet">
<metadata>
Created by potrace 1.11, written by Peter Selinger 2001-2013
</metadata>
<g transform="translate(0.000000,260.000000) scale(0.100000,-0.100000)"
fill="#000000" stroke="none">
<path d="M572 2445 c-248 -117 -410 -305 -452 -522 -17 -86 -8 -263 16 -326
26 -68 82 -137 138 -172 46 -28 56 -30 145 -30 110 0 139 11 209 79 65 61 85
107 90 203 8 138 -34 200 -200 292 -70 40 -118 92 -118 129 1 77 103 191 249
277 44 26 81 50 81 52 0 17 -37 63 -50 63 -8 -1 -57 -21 -108 -45z"/>
<path d="M1338 2441 c-243 -122 -382 -276 -439 -486 -18 -67 -21 -98 -16 -195
5 -130 21 -184 77 -258 19 -25 57 -60 84 -77 43 -26 61 -30 132 -34 71 -3 90
0 136 22 66 30 124 87 154 152 19 39 24 67 24 125 -1 130 -38 183 -196 276
-51 30 -100 65 -109 77 -55 78 38 211 228 327 48 29 87 55 87 58 0 16 -37 62
-50 62 -8 0 -59 -23 -112 -49z"/>
<path d="M1285 1187 c-64 -31 -121 -89 -151 -152 -19 -39 -24 -67 -24 -125 1
-130 38 -183 196 -276 51 -30 100 -65 109 -77 55 -78 -38 -211 -227 -327 -49
-29 -88 -55 -88 -58 0 -14 36 -62 47 -62 7 0 51 18 97 40 248 118 399 282 457
495 18 67 21 98 16 195 -5 130 -21 184 -77 258 -19 25 -57 60 -84 77 -43 26
-60 30 -135 33 -74 2 -93 -1 -136 -21z"/>
<path d="M2090 1201 c-48 -15 -85 -40 -126 -83 -61 -63 -77 -101 -82 -195 -8
-138 34 -200 200 -292 70 -40 118 -92 118 -129 -1 -77 -103 -191 -249 -277
-44 -26 -81 -50 -81 -52 0 -15 36 -63 47 -63 26 0 206 90 266 134 159 114 265
269 297 433 17 86 8 263 -16 326 -26 68 -82 137 -138 172 -43 26 -60 30 -130
32 -45 1 -92 -1 -106 -6z"/>
</g>
</svg>
